<mxfile host="app.diagrams.net" agent="Mozilla/5.0 (X11; Linux x86_64) AppleWebKit/537.36 (KHTML, like Gecko) Chrome/128.0.0.0 Safari/537.36" version="24.7.17">
  <diagram name="Страница — 1" id="2I5q7x-d6Btp2JL7qmlH">
    <mxGraphModel dx="1364" dy="793" grid="1" gridSize="10" guides="1" tooltips="1" connect="1" arrows="1" fold="1" page="1" pageScale="1" pageWidth="827" pageHeight="1169" math="0" shadow="0">
      <root>
        <mxCell id="0" />
        <mxCell id="1" parent="0" />
        <mxCell id="QrCBpC-EpYMY9STpPOwO-1" value="«Сервис авторизации»&lt;br&gt;&lt;b&gt;Python3, FastAPI&lt;/b&gt;" style="html=1;dropTarget=0;whiteSpace=wrap;" vertex="1" parent="1">
          <mxGeometry x="414" y="430" width="180" height="90" as="geometry" />
        </mxCell>
        <mxCell id="QrCBpC-EpYMY9STpPOwO-2" value="" style="shape=module;jettyWidth=8;jettyHeight=4;" vertex="1" parent="QrCBpC-EpYMY9STpPOwO-1">
          <mxGeometry x="1" width="20" height="20" relative="1" as="geometry">
            <mxPoint x="-27" y="7" as="offset" />
          </mxGeometry>
        </mxCell>
        <mxCell id="QrCBpC-EpYMY9STpPOwO-5" value="«Сервис бизнес логики»&lt;br&gt;&lt;b&gt;Pyhton3, FastAPI&lt;/b&gt;" style="html=1;dropTarget=0;whiteSpace=wrap;" vertex="1" parent="1">
          <mxGeometry x="220" y="430" width="180" height="90" as="geometry" />
        </mxCell>
        <mxCell id="QrCBpC-EpYMY9STpPOwO-6" value="" style="shape=module;jettyWidth=8;jettyHeight=4;" vertex="1" parent="QrCBpC-EpYMY9STpPOwO-5">
          <mxGeometry x="1" width="20" height="20" relative="1" as="geometry">
            <mxPoint x="-27" y="7" as="offset" />
          </mxGeometry>
        </mxCell>
        <mxCell id="QrCBpC-EpYMY9STpPOwO-7" value="модуль доступа к БД&lt;br&gt;&lt;b&gt;Golang&lt;/b&gt;" style="shape=module;align=left;spacingLeft=20;align=center;verticalAlign=top;whiteSpace=wrap;html=1;" vertex="1" parent="1">
          <mxGeometry x="240" y="570" width="170" height="60" as="geometry" />
        </mxCell>
        <mxCell id="QrCBpC-EpYMY9STpPOwO-8" value="«User Interface»&lt;br&gt;&lt;b&gt;JavaScript, React&lt;/b&gt;" style="html=1;dropTarget=0;whiteSpace=wrap;" vertex="1" parent="1">
          <mxGeometry x="360" y="290" width="180" height="90" as="geometry" />
        </mxCell>
        <mxCell id="QrCBpC-EpYMY9STpPOwO-9" value="" style="shape=module;jettyWidth=8;jettyHeight=4;" vertex="1" parent="QrCBpC-EpYMY9STpPOwO-8">
          <mxGeometry x="1" width="20" height="20" relative="1" as="geometry">
            <mxPoint x="-27" y="7" as="offset" />
          </mxGeometry>
        </mxCell>
        <mxCell id="QrCBpC-EpYMY9STpPOwO-10" value="" style="endArrow=classic;startArrow=classic;html=1;rounded=0;entryX=0.006;entryY=0.6;entryDx=0;entryDy=0;exitX=0.567;exitY=-0.044;exitDx=0;exitDy=0;exitPerimeter=0;entryPerimeter=0;" edge="1" parent="1" source="QrCBpC-EpYMY9STpPOwO-5" target="QrCBpC-EpYMY9STpPOwO-8">
          <mxGeometry width="50" height="50" relative="1" as="geometry">
            <mxPoint x="390" y="430" as="sourcePoint" />
            <mxPoint x="440" y="380" as="targetPoint" />
            <Array as="points">
              <mxPoint x="320" y="344" />
            </Array>
          </mxGeometry>
        </mxCell>
        <mxCell id="QrCBpC-EpYMY9STpPOwO-11" value="" style="endArrow=classic;startArrow=classic;html=1;rounded=0;entryX=0.672;entryY=0.978;entryDx=0;entryDy=0;entryPerimeter=0;" edge="1" parent="1" target="QrCBpC-EpYMY9STpPOwO-8">
          <mxGeometry width="50" height="50" relative="1" as="geometry">
            <mxPoint x="481" y="430" as="sourcePoint" />
            <mxPoint x="440" y="380" as="targetPoint" />
          </mxGeometry>
        </mxCell>
        <mxCell id="QrCBpC-EpYMY9STpPOwO-12" value="" style="endArrow=classic;startArrow=classic;html=1;rounded=0;entryX=0.544;entryY=1.022;entryDx=0;entryDy=0;entryPerimeter=0;exitX=0.453;exitY=-0.033;exitDx=0;exitDy=0;exitPerimeter=0;" edge="1" parent="1" source="QrCBpC-EpYMY9STpPOwO-7" target="QrCBpC-EpYMY9STpPOwO-5">
          <mxGeometry width="50" height="50" relative="1" as="geometry">
            <mxPoint x="290" y="580" as="sourcePoint" />
            <mxPoint x="340" y="530" as="targetPoint" />
          </mxGeometry>
        </mxCell>
        <mxCell id="QrCBpC-EpYMY9STpPOwO-13" value="REST" style="text;html=1;align=center;verticalAlign=middle;resizable=0;points=[];autosize=1;strokeColor=none;fillColor=none;" vertex="1" parent="1">
          <mxGeometry x="474" y="390" width="60" height="30" as="geometry" />
        </mxCell>
        <mxCell id="QrCBpC-EpYMY9STpPOwO-14" value="REST" style="text;html=1;align=center;verticalAlign=middle;resizable=0;points=[];autosize=1;strokeColor=none;fillColor=none;" vertex="1" parent="1">
          <mxGeometry x="295" y="320" width="60" height="30" as="geometry" />
        </mxCell>
        <mxCell id="QrCBpC-EpYMY9STpPOwO-15" value="RPC" style="text;html=1;align=center;verticalAlign=middle;resizable=0;points=[];autosize=1;strokeColor=none;fillColor=none;" vertex="1" parent="1">
          <mxGeometry x="310" y="530" width="50" height="30" as="geometry" />
        </mxCell>
        <mxCell id="QrCBpC-EpYMY9STpPOwO-17" value="" style="image;aspect=fixed;perimeter=ellipsePerimeter;html=1;align=center;shadow=0;dashed=0;spacingTop=3;image=img/lib/active_directory/databases.svg;" vertex="1" parent="1">
          <mxGeometry x="500" y="581" width="50" height="49" as="geometry" />
        </mxCell>
        <mxCell id="QrCBpC-EpYMY9STpPOwO-19" value="" style="endArrow=classic;startArrow=classic;html=1;rounded=0;entryX=0;entryY=0.5;entryDx=0;entryDy=0;" edge="1" parent="1" target="QrCBpC-EpYMY9STpPOwO-17">
          <mxGeometry width="50" height="50" relative="1" as="geometry">
            <mxPoint x="409" y="606" as="sourcePoint" />
            <mxPoint x="470" y="570" as="targetPoint" />
          </mxGeometry>
        </mxCell>
        <mxCell id="QrCBpC-EpYMY9STpPOwO-20" value="&lt;b&gt;PostgreSQL&lt;/b&gt;" style="text;html=1;align=center;verticalAlign=middle;resizable=0;points=[];autosize=1;strokeColor=none;fillColor=none;" vertex="1" parent="1">
          <mxGeometry x="480" y="620" width="90" height="30" as="geometry" />
        </mxCell>
      </root>
    </mxGraphModel>
  </diagram>
</mxfile>
